<?xml version="1.0" encoding="UTF-8"?>
<svg width="1200pt" height="1200pt" version="1.1" viewBox="0 0 1200 1200" xmlns="http://www.w3.org/2000/svg">
 <g>
  <path d="m26.512 29.188h-0.085938v1141.7h1146.9l0.003906-1009.6h0.19922v-132.18h-1147.1zm17.648 17.645h1111.6v96.809h-566.31l-59.301-48.176h-150.14l-50.469 48.176h-285.35zm-0.085937 1106.4v-879.32h1111.7v879.32zm1111.7-896.96h-1111.7v-94.992h292.5l50.469-48.176h136.8l59.301 48.176h572.58z"/>
  <path d="m107.08 62.422c-18.094 0-32.812 14.719-32.812 32.805 0 18.094 14.719 32.812 32.812 32.812 18.086 0 32.805-14.719 32.805-32.812 0-18.09-14.715-32.805-32.805-32.805zm0 47.969c-8.3594 0-15.164-6.8086-15.164-15.164 0-8.3594 6.8086-15.156 15.164-15.156 8.3594 0 15.156 6.7969 15.156 15.156 0.003906 8.3555-6.7969 15.164-15.156 15.164z"/>
  <path d="m201.65 62.422c-18.086 0-32.805 14.719-32.805 32.805 0 18.094 14.719 32.812 32.805 32.812 18.094 0 32.812-14.719 32.812-32.812 0-18.09-14.719-32.805-32.812-32.805zm0 47.969c-8.3594 0-15.156-6.8086-15.156-15.164 0-8.3594 6.7969-15.156 15.156-15.156 8.3594 0 15.164 6.7969 15.164 15.156 0 8.3555-6.8047 15.164-15.164 15.164z"/>
  <path d="m296.23 62.422c-18.094 0-32.812 14.719-32.812 32.805 0 18.094 14.719 32.812 32.812 32.812 18.086 0 32.805-14.719 32.805-32.812 0-18.09-14.719-32.805-32.805-32.805zm0 47.969c-8.3594 0-15.164-6.8086-15.164-15.164 0-8.3594 6.8086-15.156 15.164-15.156 8.3594 0 15.156 6.7969 15.156 15.156 0 8.3555-6.7969 15.164-15.156 15.164z"/>
  <path d="m717.27 86.402h403.27v17.648h-403.27z"/>
  <path d="m96.508 204.35h76.43v17.648h-76.43z"/>
  <path d="m219.8 204.35h76.43v17.648h-76.43z"/>
  <path d="m343.07 204.35h76.43v17.648h-76.43z"/>
  <path d="m466.36 204.35h76.43v17.648h-76.43z"/>
  <path d="m679.05 204.35h441.49v17.648h-441.49z"/>
  <path d="m97.102 1100.3h303.35v-366.18h-303.35zm17.648-348.53h268.06v330.88h-268.06z"/>
  <path d="m473.09 908.29h629.7v-174.18l-629.7 0.003906zm17.645-156.53h594.41v138.88l-594.41 0.003906z"/>
  <path d="m204.46 476.62-33.215 35.984 3.043 3c20.336 20.051 47.254 31.09 75.777 31.09 16.707 0 33.32-3.8945 48.039-11.254l4.8516-2.4297-31.148-39.344-2.9727 1.0508c-6.0156 2.1367-12.32 3.2148-18.766 3.2148-16.113 0-31.156-6.375-42.352-17.957zm64.289 27.402 20.449 25.824c-12.219 5.2656-25.645 8.0234-39.137 8.0234-24.766 0-48.211-9.0664-66.488-25.617l21.145-22.902c12.453 11.262 28.375 17.406 45.34 17.406 6.3789-0.003906 12.652-0.91797 18.691-2.7344z"/>
  <path d="m168.33 509.12 33.527-36.105-1.8516-2.8789c-5.9023-9.168-9.0234-19.992-9.0234-31.297 0-30.27 22.75-55.57 52.906-58.844l3.9375-0.42969v-48.582l-4.6797 0.28516c-56.594 3.4805-100.92 50.734-100.92 107.57 0 24.309 7.918 47.211 22.91 66.227zm70.676-168.65v31.297c-32.676 5.4531-56.844 33.613-56.844 67.074 0 11.812 2.9727 23.195 8.6328 33.121l-21.828 23.496c-11.734-16.586-17.914-36.051-17.914-56.621 0-50.602 38.266-92.93 87.953-98.367z"/>
  <path d="m309.15 438.97v4.4102h44.352l4.4102-0.12891v-4.4102c0-56.836-44.324-104.09-100.92-107.57l-4.6797-0.28516v48.582l3.9375 0.42969c30.156 3.2734 52.898 28.57 52.898 58.973zm-48.016-98.5c48.281 5.2812 85.77 45.395 87.855 94.086h-31.148c-1.9648-31.555-25.438-57.578-56.707-62.789z"/>
  <path d="m356.95 452.84 0.63672-4.9727h-49.055l-0.75 3.4805c-3.4023 15.836-13.375 29.691-27.359 38.008l-4.3359 2.5781 29.496 37.172h3.6016l1.1211-0.75c25.703-17.324 42.707-44.848 46.645-75.516zm-48.324 65.91-19.473-24.539c12.891-9.0312 22.281-22.359 26.41-37.516h31.863c-4.4883 24.84-18.371 47.07-38.801 62.055z"/>
  <path d="m655.65 420.2c13.809 39.027-17.484 62.609-18.094 64.375l35.984 33.219c1.3516-1.9922 34.078-28.137 34.078-78.824 0-30.57-12.578-49.984-13.676-52.891l-39.344 31.156zm35.129-20.359c5.2578 12.227 8.0117 25.645 8.0117 39.129 0 24.773-9.0664 48.227-25.609 66.496l-22.902-21.145c16.578-18.328 20.953-43.109 14.676-64.031z"/>
  <path d="m599.78 546.82c42.82 0 67.93-24.766 70.277-26.102l-36.113-33.527c-1.8477 0.87891-13.406 10.867-34.164 10.867-30.27 0-55.57-22.738-58.852-52.898l-0.42969-3.9375h-48.574l0.28516 4.6797c3.4805 56.594 50.734 100.92 107.57 100.92zm-67.082-96.777c5.4648 32.664 33.633 56.836 67.082 56.836 11.82 0 23.195-2.9727 33.113-8.625l23.508 21.816c-16.598 11.746-36.062 17.922-56.621 17.922-50.605 0-92.93-38.266-98.367-87.949z"/>
  <path d="m540.92 432.79c3.2812-30.16 28.582-52.906 58.98-52.906h4.4102c-0.003906-1.7773-0.15625-51.934-0.14453-48.754h-4.4102c-56.828 0-104.07 44.324-107.55 100.92l-0.28516 4.6797h48.574zm-39.516-4.8867c5.2734-48.238 45.332-85.711 94.086-87.855v31.141c-31.547 1.9648-57.578 25.445-62.797 56.715z"/>
  <path d="m652.87 412.95c1.7773-1.4141 39.539-31.5 37.172-29.617v-3.4727c-1.7656-1.6992-23.93-41.043-76.266-47.762l-4.9727-0.63672v49.039l3.4805 0.75c29.254 6.3164 39.043 29.934 40.586 31.699zm-35.242-71.328c24.844 4.4883 47.074 18.379 62.059 38.801l-24.539 19.465c-9.0312-12.883-22.359-22.273-37.516-26.41z"/>
  <path d="m889.47 528.46 21.172-45.504c-1.6055-1.7656-8.1523-6.7344-13.578-17.508-13.125-26.109-1.75-48.32-1.4297-50.305l-47.074-13.527c-0.33203 2.5273-17.832 40.453 4.9453 85.738 13.734 27.309 33.656 38.98 35.965 41.105zm-35.051-115.98 29.953 8.5977c-6.5 23.523 0.41016 47.66 15.641 63.797l-13.891 29.875c-28.246-23.77-42.547-63.188-31.703-102.27z"/>
  <path d="m923.32 386.12c8.2734-4.1523 17.148-6.2656 26.375-6.2656 20.301 0 38.98 10.133 49.961 27.109l2.1523 3.3242 43.402-21.828-2.3594-4.0586c-19.164-32.914-54.82-53.363-93.062-53.363-16.906 0-33.176 3.8789-48.375 11.52-38.449 19.324-49.504 52.547-51.062 54.879l47.312 13.742c1.3867-1.7695 7.2148-15.789 25.656-25.059zm-60.48 5.7578c17.613-33.082 51.895-52.012 86.953-52.012 33.535 0 64.902 17.121 82.98 44.98l-27.953 14.055c-12.82-17.52-33.141-27.867-55.121-27.867-23.184 0-44.215 11.965-56.051 29.797z"/>
  <path d="m1005.2 418.01c10.617 28.426-1.7734 60.109-28.918 73.758l-3.9648 1.9727c0.89844 1.7734 23.461 46.344 22.023 43.504l3.9375-1.9805c50.777-25.516 73.086-86.34 50.785-138.47l-1.8438-4.3164-43.402 21.828zm37.5-13.383c16.949 45.469-2.0078 96.945-44.602 120.75l-13.984-27.816c27.305-15.922 40.016-48.59 30.633-78.879z"/>
  <path d="m990.08 539.04-22.031-43.824-3.457 0.88672c-28.641 7.4609-48.73-9.375-50.492-10.09-0.82031 1.7773-21.195 45.977-19.93 43.23l1.6562 3.0781c1.8086 0.73828 22.809 14.457 53.941 14.457 22.828 0 36.992-6.8281 40.312-7.7383zm-85.32-11.918 13.176-28.41c13.742 7.4023 30.02 9.875 45.383 6.7383l14.312 28.477c-23.988 7.0938-50.539 4.6016-72.871-6.8047z"/>
  <path d="m235.58 585.16h149.82v17.648h-149.82z"/>
  <path d="m118.99 585.16h84.297v17.648h-84.297z"/>
  <path d="m335.16 626.03h50.246v17.648h-50.246z"/>
  <path d="m118.99 626.03h187.29v17.648h-187.29z"/>
  <path d="m213.83 666.91h171.57v17.648h-171.57z"/>
  <path d="m118.99 666.91h64.195v17.648h-64.195z"/>
  <path d="m583.43 585.16h149.82v17.648h-149.82z"/>
  <path d="m466.84 585.16h84.297v17.648h-84.297z"/>
  <path d="m683 626.03h50.246v17.648h-50.246z"/>
  <path d="m466.84 626.03h187.29v17.648h-187.29z"/>
  <path d="m561.68 666.91h171.57v17.648h-171.57z"/>
  <path d="m466.84 666.91h64.188v17.648h-64.188z"/>
  <path d="m931.28 585.16h149.82v17.648h-149.82z"/>
  <path d="m814.69 585.16h84.289v17.648h-84.289z"/>
  <path d="m1030.8 626.03h50.254v17.648h-50.254z"/>
  <path d="m814.69 626.03h187.28v17.648h-187.28z"/>
  <path d="m909.53 666.91h171.57v17.648h-171.57z"/>
  <path d="m814.69 666.91h64.188v17.648h-64.188z"/>
  <path d="m481.91 956.73h393.95v17.648h-393.95z"/>
  <path d="m481.91 1019.3h393.95v17.648h-393.95z"/>
  <path d="m481.91 1081.9h393.95v17.648h-393.95z"/>
  <path d="m933.06 956.73h160.9v17.648h-160.9z"/>
  <path d="m933.06 1019.3h160.9v17.648h-160.9z"/>
  <path d="m933.06 1081.9h160.9v17.648h-160.9z"/>
  <path d="m155.82 798.32h185.92v17.648h-185.92z"/>
  <path d="m155.82 853.34h185.92v17.648h-185.92z"/>
  <path d="m155.82 908.38h185.92v17.648h-185.92z"/>
  <path d="m155.82 963.4h185.92v17.648h-185.92z"/>
  <path d="m155.82 1018.4h185.92v17.648h-185.92z"/>
 </g>
</svg>
