<?xml version="1.0" encoding="UTF-8"?>
<svg width="1200pt" height="1200pt" version="1.1" viewBox="0 0 1200 1200" xmlns="http://www.w3.org/2000/svg">
 <g>
  <path d="m175 725h100c13.809 0 25 13.809 25 25v250c0 13.809-11.191 25-25 25h-100c-13.809 0-25-13.809-25-25v-250c0-13.809 11.191-25 25-25z"/>
  <path d="m425 525h100c13.809 0 25 13.809 25 25v450c0 13.809-11.191 25-25 25h-100c-13.809 0-25-13.809-25-25v-450c0-13.809 11.191-25 25-25z"/>
  <path d="m675 625h100c13.809 0 25 13.809 25 25v350c0 13.809-11.191 25-25 25h-100c-13.809 0-25-13.809-25-25v-350c0-13.809 11.191-25 25-25z"/>
  <path d="m925 475h100c13.809 0 25 13.809 25 25v500c0 13.809-11.191 25-25 25h-100c-13.809 0-25-13.809-25-25v-500c0-13.809 11.191-25 25-25z"/>
  <path d="m935.5 313.5c11.836 7.4414 25.52 11.422 39.5 11.5 21.363-0.011719 41.711-9.1328 55.934-25.078 14.219-15.945 20.965-37.199 18.543-58.426-2.4219-21.227-13.781-40.414-31.23-52.746-17.449-12.328-39.328-16.633-60.145-11.832-20.82 4.8047-38.602 18.258-48.883 36.984-10.285 18.73-12.09 40.953-4.9688 61.098l-125 75c-16.59-17.043-40.281-25.207-63.848-22-23.566 3.2031-44.215 17.398-55.652 38.25l-109.75-56.5c0.24609-3.2461 0.24609-6.5039 0-9.75 0-26.793-14.293-51.555-37.5-64.953-23.207-13.395-51.793-13.395-75 0-23.207 13.398-37.5 38.16-37.5 64.953 0.007812 9.8672 1.9609 19.637 5.75 28.75l-143.25 106.75c-11.328-6.8086-24.285-10.434-37.5-10.5-19.891 0-38.969 7.9023-53.031 21.969-14.066 14.062-21.969 33.141-21.969 53.031s7.9023 38.969 21.969 53.031c14.062 14.066 33.141 21.969 53.031 21.969s38.969-7.9023 53.031-21.969c14.066-14.062 21.969-33.141 21.969-53.031-0.11719-9.0547-1.8086-18.023-5-26.5l144.5-107.75c13.82 7.6562 29.734 10.668 45.398 8.5977 15.66-2.0703 30.246-9.1133 41.602-20.098l125 62.25c4.9883 24.723 22.07 45.285 45.457 54.719 23.391 9.4375 49.957 6.4844 70.703-7.8555 20.75-14.34 32.898-38.148 32.34-63.363v-5.5z"/>
 </g>
</svg>
